<svg xmlns="http://www.w3.org/2000/svg" version="1.1" xmlns:xlink="http://www.w3.org/1999/xlink" xmlns:svgjs="http://svgjs.dev/svgjs" width="100%" height="100%" viewBox="0 0 1000 600"><rect width="1000" height="600" x="0" y="0" fill="#234e70"/><g><rect width="333.3333333333333" height="333.3333333333333" y="297.50194457204395" fill="#fbf8be" transform="matrix(0.454083536885049,0,0,0.454083536885049,0,89.22866304913384)" x="275.2796630859375"/><path d="M361.2902159866652 393.90956691922196L361.2902159866652 390.96897890033176Q361.2902159866652 390.09880489474176 362.1303839920624 390.09880489474176L362.1303839920624 390.09880489474176L364.47085200709745 390.09880489474176L398.3176202245274 389.3786608901156Q404.43884426384983 389.16861888876633 411.6102783099188 389.16861888876633L411.6102783099188 389.16861888876633L424.81291839473187 389.16861888876633Q443.1465845125064 389.16861888876633 452.38843257187557 390.5188888974404Q461.6302806312448 391.8991649063072 470.5420626884936 393.75953691825816Q479.45384474574246 395.5899029300163 489.5058548103161 402.13121097203737Q499.58787087508244 408.67251901405837 506.9693469225007 417.9743790738131L506.9693469225007 417.9743790738131Q522.6024730229271 437.77833920103274 522.6024730229271 460.79294134887743Q522.6024730229271 483.7775374965293 510.57006694563154 502.0211856137256L510.57006694563154 502.0211856137256Q493.2566048344107 528.5164837839301 460.46004662372724 536.6481098361672L460.46004662372724 536.6481098361672Q450.0179585566478 539.1686138523588 439.03576248609875 539.1686138523588L439.03576248609875 539.1686138523588L362.1303839920624 539.1686138523588Q361.2902159866652 539.1686138523588 361.2902159866652 538.3284458469616L361.2902159866652 538.3284458469616L361.2902159866652 535.3578518278787Q361.2902159866652 534.5176838224814 362.1303839920624 534.5176838224814L362.1303839920624 534.5176838224814L364.47085200709745 534.5176838224814Q383.67469213046195 534.5176838224814 383.67469213046195 522.2752357438366L383.67469213046195 522.2752357438366L383.67469213046195 406.66211700114366Q383.67469213046195 400.75093496317055 379.1137801011629 397.7503349438948Q374.58287407205654 394.74973492461913 368.8817340354327 394.74973492461913L368.8817340354327 394.74973492461913L362.1303839920624 394.74973492461913Q361.2902159866652 394.74973492461913 361.2902159866652 393.90956691922196L361.2902159866652 393.90956691922196ZM435.55506646373885 394.11960892057124L406.86933027946316 394.11960892057124Q404.2288022625005 394.11960892057124 404.2288022625005 396.9701789388831L404.2288022625005 396.9701789388831L404.2288022625005 525.9959797677385Q404.2288022625005 533.7975398178553 418.90173635675876 534.0975998197829L418.90173635675876 534.0975998197829Q423.2226003845158 534.2176238205539 427.96354841497134 534.2176238205539L427.96354841497134 534.2176238205539Q461.6302806312448 534.2176238205539 480.86412675480204 515.3138436991169Q500.1279788785521 496.4400695778728 500.1279788785521 465.0537933762489Q500.1279788785521 433.667517174625 482.33442076424717 413.89356304759815Q464.57086865013497 394.11960892057124 435.55506646373885 394.11960892057124L435.55506646373885 394.11960892057124Z " fill="#234e70" transform="matrix(0.454083536885049,0,0,0.454083536885049,0,89.22866304913384)"/><path d="M722.0075879207621 536.0297893151212L722.0075879207621 533.860684273043Q722.0075879207621 533.1461555532996 722.7986732890495 533.1461555532996L722.7986732890495 533.1461555532996L725.3250426909993 533.1461555532996Q734.1035383907039 533.1461555532996 739.4625037887793 529.3948797746468Q744.7959503040067 525.6180851131461 744.7959503040067 520.5908651920943L744.7959503040067 520.5908651920943L744.7959503040067 421.2713731477626Q744.7959503040067 419.40849469986017 744.0303838185674 419.17882475422834Q743.2648173331281 418.9491548085966 742.1930242535129 418.77052262866073L742.1930242535129 418.77052262866073L707.7425324087422 418.77052262866073Q699.3978577174532 420.5568444280192 696.7949316669594 431.6065207011938L696.7949316669594 431.6065207011938Q695.3658742274727 437.5269015219248 695.0851665161449 439.1856289070434Q694.8299776876652 440.844356292162 694.0899300850738 440.844356292162L694.0899300850738 440.844356292162L692.4822404656511 440.844356292162Q691.9463439258436 440.844356292162 691.9463439258436 440.4870919322903L691.9463439258436 440.4870919322903L691.9463439258436 437.5269015219248L695.2637986960808 409.53268703769254Q695.7996952358883 406.75112880726294 697.0501204954393 406.75112880726294Q698.3260646378383 406.75112880726294 699.755122077325 408.4864128409254Q701.1841795168118 410.2472157574359 705.2161630067924 410.2472157574359L705.2161630067924 410.2472157574359L801.9327290006303 410.2472157574359Q805.7860803106751 410.2472157574359 806.6026845618104 409.3540548577567Q807.4192888129456 408.46089395807746 808.133817532689 407.5932519412462Q808.8483462524324 406.75112880726294 809.9711770977435 406.75112880726294Q811.0940079430545 406.75112880726294 811.4002345372303 407.6442897069421Q811.7064611314061 408.5374506066214 811.8850933113418 409.53268703769254L811.8850933113418 409.53268703769254L815.202548081579 437.5269015219248L815.202548081579 440.4870919322903Q815.202548081579 440.844356292162 814.6666515417716 440.844356292162L814.6666515417716 440.844356292162L813.0589619223489 440.844356292162Q812.3444332026055 440.844356292162 812.0637254912778 439.4918555012191L812.0637254912778 439.4918555012191Q810.634668051791 430.50920873873076 807.9551853527532 425.2778377548952Q805.2501837708675 420.02094788821165 799.4318784815284 418.77052262866073L799.4318784815284 418.77052262866073L764.8793111053658 418.77052262866073Q763.8075180257506 418.9491548085966 763.0419515403113 419.17882475422834Q762.276385054872 419.40849469986017 762.276385054872 421.2713731477626L762.276385054872 421.2713731477626L762.276385054872 520.5908651920943Q762.276385054872 525.6180851131461 767.6098315700995 529.3948797746468Q772.968796968175 533.1461555532996 781.7472926678795 533.1461555532996L781.7472926678795 533.1461555532996L784.3502187183733 533.1461555532996Q785.0647474381167 533.1461555532996 785.0647474381167 533.860684273043L785.0647474381167 533.860684273043L785.0647474381167 536.0297893151212Q785.0647474381167 536.7443180348646 784.3502187183733 536.7443180348646L784.3502187183733 536.7443180348646L722.7221166405055 536.7443180348646Q722.0075879207621 536.7443180348646 722.0075879207621 536.0297893151212L722.0075879207621 536.0297893151212ZM851.5414372571003 391.312204684236L851.5414372571003 467.3074378055155Q851.5414372571003 469.45102396474573 852.1794093282997 469.45102396474573Q852.8173813994991 469.45102396474573 853.0725702279789 469.14479737056996Q853.3532779393067 468.83857077639425 856.8493648894797 464.95970058350156L856.8493648894797 464.95970058350156Q866.9803613801272 453.6803543646951 877.3920655821023 453.6803543646951L877.3920655821023 453.6803543646951Q891.0191490229228 453.6803543646951 897.3988697349174 459.7793673653619L897.3988697349174 459.7793673653619Q905.2076478863987 467.48606998545137 905.2076478863987 485.70655233890795L905.2076478863987 485.70655233890795L905.2076478863987 523.1172345940441Q905.2076478863987 531.8957302937488 914.8793044857825 533.3247877332356L914.8793044857825 533.3247877332356Q919.1154390385469 533.860684273043 919.1154390385469 535.213185063986Q919.1154390385469 536.5656858549288 918.1967592560197 536.7443180348646L918.1967592560197 536.7443180348646L878.1831509503896 536.7443180348646Q877.2899900507103 536.5656858549288 877.2899900507103 535.4938927753137L877.2899900507103 535.4938927753137Q877.2899900507103 533.860684273043 881.5261246034748 533.3247877332356L881.5261246034748 533.3247877332356Q891.1977812028587 531.8957302937488 891.1977812028587 523.1172345940441L891.1977812028587 523.1172345940441L891.1977812028587 486.5997132385871Q891.1977812028587 473.40645080618236 889.3093838721082 469.45102396474573L889.3093838721082 469.45102396474573Q885.7367402733912 461.5656891647204 874.329799640345 461.5656891647204L874.329799640345 461.5656891647204Q867.3376257399989 461.5656891647204 859.4522909399735 467.53710775114735Q851.5414372571003 473.4830074547263 851.5414372571003 480.6793324178562L851.5414372571003 480.6793324178562L851.5414372571003 523.1172345940441Q851.5414372571003 531.8957302937488 861.2386127393321 533.3247877332356L861.2386127393321 533.3247877332356Q865.4492284092485 533.860684273043 865.4492284092485 535.213185063986Q865.4492284092485 536.5656858549288 864.5560675095693 536.7443180348646L864.5560675095693 536.7443180348646L824.5424592039391 536.7443180348646Q823.6492983042599 536.5656858549288 823.6492983042599 535.4938927753137L823.6492983042599 535.4938927753137Q823.6492983042599 533.860684273043 827.8599139741763 533.3247877332356L827.8599139741763 533.3247877332356Q837.5570894564081 531.8957302937488 837.5570894564081 523.1172345940441L837.5570894564081 523.1172345940441L837.5570894564081 411.24245218850706Q837.5570894564081 407.46565752700633 833.4230304350357 406.0366000875195L833.4230304350357 406.0366000875195Q831.6367086356771 405.39862801632006 829.5696791249909 404.9903258907524Q827.5026496143047 404.5820237651848 826.3032621204496 404.2247594053131Q825.0783557437467 403.8674950454414 824.772129149571 403.5612684512656Q824.4659025553952 403.25504185708985 824.4659025553952 402.2087676603228Q824.4659025553952 401.18801234640364 825.79288446349 400.47348362666025L825.79288446349 400.47348362666025L848.6833223781267 389.70451506481334Q849.7551154577418 389.16861852500585 850.0358231690695 389.16861852500585L850.0358231690695 389.16861852500585Q851.5414372571003 389.16861852500585 851.5414372571003 391.312204684236L851.5414372571003 391.312204684236ZM994.5492567371709 489.4578281175607L942.516254610143 489.4578281175607Q940.9851216392644 489.4578281175607 940.9851216392644 496.01618100949116L940.9851216392644 496.01618100949116Q940.9851216392644 509.92397216163937 949.2532396820094 519.3404399325434Q957.4958388419064 528.7569077034474 969.744902608936 528.7569077034474Q981.9939663759657 528.7569077034474 993.29883147762 518.1665713215364L993.29883147762 518.1665713215364Q993.4774636575559 517.9879391416005 993.7581713688836 517.9879391416005L993.7581713688836 517.9879391416005L994.1919923772992 517.9879391416005Q994.7278889171067 517.9879391416005 995.2382665740664 518.8555811584317Q995.7231253481779 519.6977042924151 996.1569463565935 519.9784120037428L996.1569463565935 519.9784120037428Q985.7707610374664 532.6102590134922 971.6843377053823 537.458846754608L971.6843377053823 537.458846754608Q966.8357499642665 539.1686119054225 960.7367369635996 539.1686119054225Q954.6377239629328 539.1686119054225 948.3600787823301 535.8001193694894Q942.0824336017274 532.4316268335563 937.5911102204833 526.9705859040889L937.5911102204833 526.9705859040889Q928.0725669181874 515.5636452710426 928.0725669181874 498.568069294289Q928.0725669181874 481.5724933175354 938.4332333544666 467.5626266339953Q948.7938997907457 453.57827883330316 966.9123066128103 453.57827883330316L966.9123066128103 453.57827883330316Q979.9269368652793 453.57827883330316 988.1950549080243 465.1893705291333Q996.4376540679212 476.82598110781146 996.4376540679212 485.604476807516L996.4376540679212 485.604476807516Q996.4376540679212 489.4578281175607 994.5492567371709 489.4578281175607L994.5492567371709 489.4578281175607ZM943.5114910412142 479.78617151817696L943.5114910412142 480.85796459779203Q943.5114910412142 482.56772974860655 945.1191806606369 482.56772974860655L945.1191806606369 482.56772974860655L978.9317004342082 482.56772974860655Q981.2794376562222 482.56772974860655 981.2794376562222 479.78617151817696L981.2794376562222 479.78617151817696Q981.2794376562222 473.30437527479046 975.4866512497312 466.5418713200762Q969.69386484324 459.7793673653619 962.8037664742859 459.7793673653619L962.8037664742859 459.7793673653619Q956.0667814024196 459.7793673653619 950.5547027072563 465.87838036602875Q945.0426240120929 471.9773933666956 943.5114910412142 479.78617151817696L943.5114910412142 479.78617151817696ZM1058.6016526855965 413.2074061678014L1058.6016526855965 410.7065556486996Q1058.6016526855965 409.9665080461082 1059.31618140534 409.9665080461082L1059.31618140534 409.9665080461082L1061.3066542674824 409.9665080461082L1090.091954120002 409.3540548577567Q1095.2978062209895 409.17542267782085 1101.3968192216562 409.17542267782085L1101.3968192216562 409.17542267782085L1112.6251276747666 409.17542267782085Q1128.2171650948817 409.17542267782085 1136.0769810120587 410.32377240597987Q1143.9367969292362 411.4976410169869 1151.5159051350856 413.07981175356156Q1159.0950133409353 414.6364636072882 1167.6693579778562 420.1995800681475Q1176.218183731929 425.76269652900675 1182.4958289125316 433.67355021188007L1182.4958289125316 433.67355021188007Q1195.7911668763281 450.51601289154576 1195.7911668763281 470.0889960359452Q1195.7911668763281 489.63646029749657 1185.5580948542888 505.15194106906745L1185.5580948542888 505.15194106906745Q1170.8336994510055 527.6851146238323 1142.941560498165 534.6007318756344L1142.941560498165 534.6007318756344Q1134.0609892670686 536.7443180348646 1124.7210781447084 536.7443180348646L1124.7210781447084 536.7443180348646L1059.31618140534 536.7443180348646Q1058.6016526855965 536.7443180348646 1058.6016526855965 536.0297893151212L1058.6016526855965 536.0297893151212L1058.6016526855965 533.5034199131713Q1058.6016526855965 532.788891193428 1059.31618140534 532.788891193428L1059.31618140534 532.788891193428L1061.3066542674824 532.788891193428Q1077.6387392901884 532.788891193428 1077.6387392901884 522.3771869914528L1077.6387392901884 522.3771869914528L1077.6387392901884 424.0529313781922Q1077.6387392901884 419.02571145714046 1073.7853879801437 416.47382317234263Q1069.9065177872512 413.9219348875448 1065.057930046135 413.9219348875448L1065.057930046135 413.9219348875448L1059.31618140534 413.9219348875448Q1058.6016526855965 413.9219348875448 1058.6016526855965 413.2074061678014L1058.6016526855965 413.2074061678014ZM1121.7608877343432 413.38603834773727L1097.3648357316756 413.38603834773727Q1095.1191740410536 413.38603834773727 1095.1191740410536 415.81033221829523L1095.1191740410536 415.81033221829523L1095.1191740410536 525.5415284646022Q1095.1191740410536 532.1764380050765 1107.597907753715 532.4316268335563L1107.597907753715 532.4316268335563Q1111.272626883824 532.5337023649482 1115.3046103738045 532.5337023649482L1115.3046103738045 532.5337023649482Q1143.9367969292362 532.5337023649482 1160.2944008347904 516.4568061707218Q1176.6775236231924 500.40542885934343 1176.6775236231924 473.7126774003581Q1176.6775236231924 447.0199259413728 1161.5703449771893 430.202982144555Q1146.4376474483379 413.38603834773727 1121.7608877343432 413.38603834773727L1121.7608877343432 413.38603834773727ZM1250.1463873425223 536.7443180348646L1210.132779036892 536.7443180348646Q1209.2396181372128 536.5656858549288 1209.2396181372128 535.4938927753137L1209.2396181372128 535.4938927753137Q1209.2396181372128 533.860684273043 1213.4502338071293 533.3247877332356L1213.4502338071293 533.3247877332356Q1223.147409289361 531.8957302937488 1223.147409289361 523.1172345940441L1223.147409289361 523.1172345940441L1223.147409289361 475.6521124968044Q1223.147409289361 471.8753178353037 1219.0133502679887 470.44626039581686L1219.0133502679887 470.44626039581686Q1217.2270284686301 469.8082883246174 1215.1599989579438 469.42550508189777Q1213.0929694472575 469.0172029563301 1211.8935819534026 468.6599385964584Q1210.6686755766996 468.30267423658665 1210.3624489825238 467.970928759563Q1210.056222388348 467.6647021653872 1210.056222388348 466.64394685146806Q1210.056222388348 465.597672654701 1211.3832042964432 464.8831439349576L1211.3832042964432 464.8831439349576L1234.2736422110797 454.1141753731107Q1235.3454352906947 453.57827883330316 1235.6261430020224 453.57827883330316L1235.6261430020224 453.57827883330316Q1237.1317570900533 453.57827883330316 1237.1317570900533 455.72186499253337L1237.1317570900533 455.72186499253337L1237.1317570900533 523.1172345940441Q1237.1317570900533 531.8957302937488 1246.8289325722849 533.3247877332356L1246.8289325722849 533.3247877332356Q1251.0395482422014 533.860684273043 1251.0395482422014 535.213185063986Q1251.0395482422014 536.5656858549288 1250.1463873425223 536.7443180348646L1250.1463873425223 536.7443180348646ZM1228.8381201644602 428.36562257950055Q1225.1123632686554 428.36562257950055 1222.3052861553779 426.04340424033455Q1219.4726901592521 423.69566701832053 1219.4726901592521 419.53608911410004Q1219.4726901592521 415.3509923270316 1222.1521728582898 412.9266984564737Q1224.8571744401756 410.5279234687637 1228.5829313359804 410.5279234687637Q1232.3086882317853 410.5279234687637 1234.860576516583 413.38603834773727Q1237.4124648013808 416.2696721095588 1237.4124648013808 419.587126879796Q1237.4124648013808 422.9045816500332 1234.9881709308231 425.6351021147669Q1232.563877060265 428.36562257950055 1228.8381201644602 428.36562257950055ZM1332.2406334644684 464.34724739515L1332.2406334644684 464.34724739515Q1332.2406334644684 470.6248925757527 1324.9677518527947 470.6248925757527L1324.9677518527947 470.6248925757527Q1321.293032722686 470.6248925757527 1318.7411444378881 468.5068252993705Q1316.18925615309 466.4142769058363 1314.7857175964514 464.93418170065354Q1313.4076979226606 463.4540864954708 1311.8765649517818 462.20366123591987L1311.8765649517818 462.20366123591987Q1305.4202875912433 456.89573360354035 1296.131414234579 461.02979262491283Q1286.8425408779149 465.16385164628537 1281.8153209568632 478.6123029071699L1281.8153209568632 478.6123029071699Q1279.0337627264337 486.06381669877965 1279.0337627264337 493.41325495899736L1279.0337627264337 493.41325495899736Q1279.0337627264337 509.209443441896 1286.2300876895636 519.2128455183035Q1293.4008937698454 529.216247594711 1308.201845821673 529.216247594711L1308.201845821673 529.216247594711Q1319.2260032119993 529.216247594711 1328.030017794552 519.3404399325434L1328.030017794552 519.3404399325434Q1330.7095004935895 516.3802495221779 1331.2453970333972 516.3802495221779Q1331.781293573205 516.3802495221779 1332.4192656444043 516.9161460619855Q1333.0572377156036 517.452042601793 1333.0572377156036 518.4983167985602Q1333.0572377156036 519.5190721124792 1332.5213411757964 520.0549686522868L1332.5213411757964 520.0549686522868Q1318.7921822035837 539.1686119054225 1297.9687737996335 539.1686119054225L1297.9687737996335 539.1686119054225Q1282.8871140364784 539.1686119054225 1273.2409763199425 527.940303452312Q1263.6203574862548 516.7375138820496 1263.6203574862548 502.29382619009385L1263.6203574862548 502.29382619009385Q1263.6969141347986 475.5500369654125 1276.5329122073317 463.8113508553425L1276.5329122073317 463.8113508553425Q1287.837777308986 453.47620330191126 1308.7377423614803 453.47620330191126L1308.7377423614803 453.47620330191126Q1321.6502970825572 453.47620330191126 1325.8609127524737 456.07912935240506Q1330.0970473052384 458.68205540289887 1331.781293573205 462.6374822443355L1331.781293573205 462.6374822443355Q1332.2406334644684 463.53064314401473 1332.2406334644684 464.34724739515ZM1412.0892178957924 489.4578281175607L1360.056215768765 489.4578281175607Q1358.5250827978862 489.4578281175607 1358.5250827978862 496.01618100949116L1358.5250827978862 496.01618100949116Q1358.5250827978862 509.92397216163937 1366.793200840631 519.3404399325434Q1375.035800000528 528.7569077034474 1387.284863767558 528.7569077034474Q1399.5339275345873 528.7569077034474 1410.8387926362416 518.1665713215364L1410.8387926362416 518.1665713215364Q1411.0174248161775 517.9879391416005 1411.2726136446572 517.9879391416005L1411.2726136446572 517.9879391416005L1411.731953535921 517.9879391416005Q1412.2678500757283 517.9879391416005 1412.75270884984 518.8555811584317Q1413.2630865068 519.6977042924151 1413.6969075152151 519.9784120037428L1413.6969075152151 519.9784120037428Q1403.2852033132403 532.6102590134922 1389.1987799811563 537.458846754608L1389.1987799811563 537.458846754608Q1384.3757111228883 539.1686119054225 1378.2766981222212 539.1686119054225Q1372.1521662387067 539.1686119054225 1365.8745210581037 535.8001193694894Q1359.5968758775011 532.4316268335563 1355.131071379105 526.9705859040889L1355.131071379105 526.9705859040889Q1345.6125280768092 515.5636452710426 1345.6125280768092 498.568069294289Q1345.6125280768092 481.5724933175354 1355.9731945130884 467.5626266339953Q1366.3338609493676 453.57827883330316 1384.4522677714322 453.57827883330316L1384.4522677714322 453.57827883330316Q1397.4668980239012 453.57827883330316 1405.7094971837982 465.1893705291333Q1413.977615226543 476.82598110781146 1413.977615226543 485.604476807516L1413.977615226543 485.604476807516Q1413.977615226543 489.4578281175607 1412.0892178957924 489.4578281175607L1412.0892178957924 489.4578281175607ZM1361.0514521998361 479.78617151817696L1361.0514521998361 480.85796459779203Q1361.0514521998361 482.56772974860655 1362.6591418192588 482.56772974860655L1362.6591418192588 482.56772974860655L1396.47166159283 482.56772974860655Q1398.8193988148441 482.56772974860655 1398.8193988148441 479.78617151817696L1398.8193988148441 479.78617151817696Q1398.8193988148441 473.30437527479046 1393.0266124083528 466.5418713200762Q1387.2338260018619 459.7793673653619 1380.3182087500595 459.7793673653619L1380.3182087500595 459.7793673653619Q1373.6067425610413 459.7793673653619 1368.094663865878 465.87838036602875Q1362.5570662878667 471.9773933666956 1361.0514521998361 479.78617151817696L1361.0514521998361 479.78617151817696ZM1557.3426990664857 481.1131534262718L1612.0551838925512 481.1131534262718Q1613.0504203236223 481.1131534262718 1613.0504203236223 482.51669198291063Q1613.0504203236223 483.8947116567015 1612.0551838925512 484.430608196509L1612.0551838925512 484.430608196509Q1609.6308900219933 485.42584462758015 1607.079001737195 486.14037334732353Q1604.5271134523973 486.854902067067 1602.3835272931674 488.02877067807395L1602.3835272931674 488.02877067807395Q1597.4328640206595 490.70825337711165 1597.4328640206595 496.73070972923455L1597.4328640206595 496.73070972923455L1597.4328640206595 525.8987928244738Q1597.4328640206595 527.8637468037682 1587.9653584840594 531.1812015740054Q1578.4978529474597 534.4986563442426 1572.5774721267285 536.0297893151212L1572.5774721267285 536.0297893151212Q1544.863965353824 542.8433310355315 1523.0708394016506 534.6007318756344L1523.0708394016506 534.6007318756344Q1498.0368153277836 524.9801130419467 1487.6251111258089 500.2267966794076L1487.6251111258089 500.2267966794076Q1482.4192590248213 487.8501384981381 1482.4192590248213 475.6010747311085Q1482.4192590248213 463.3520109640789 1484.8435528953787 455.00733627279L1484.8435528953787 455.00733627279Q1492.1929911555967 429.5394911905076 1515.6958822585848 415.81033221829523L1515.6958822585848 415.81033221829523Q1531.058249733068 406.82768545580683 1547.9517501784294 406.82768545580683Q1564.8707695066391 406.82768545580683 1583.8823372283828 413.6667460590651L1583.8823372283828 413.6667460590651Q1587.378424178556 414.91717131861594 1587.8377640698195 414.91717131861594L1587.8377640698195 414.91717131861594L1588.909557149435 414.91717131861594L1592.5077196309994 414.0240104189367L1594.7533813216219 414.0240104189367Q1595.7230988698448 414.0240104189367 1595.7230988698448 414.9937279671599L1595.7230988698448 414.9937279671599L1595.7230988698448 444.87633978214257Q1595.7230988698448 446.58610493295714 1593.7581448905507 446.58610493295714L1593.7581448905507 446.58610493295714L1593.400880530679 446.58610493295714Q1591.6911153798642 446.40747275302124 1591.0786621915126 441.992706020321L1591.0786621915126 441.992706020321Q1590.9000300115772 441.0995451206418 1590.7979544801851 440.66572411222614L1590.7979544801851 440.66572411222614Q1581.8153077176967 412.569434096602 1552.927932333785 412.569434096602L1552.927932333785 412.569434096602Q1529.7823055906688 412.569434096602 1516.0276277356083 430.07538773031513Q1502.2474309977001 447.55582248118026 1502.2474309977001 471.6966856553678Q1502.2474309977001 495.8375488295553 1516.1041843841522 514.3642577771876Q1529.9609377706047 532.8909667248199 1554.2038764761842 532.8909667248199L1554.2038764761842 532.8909667248199Q1566.6570913059977 532.8909667248199 1574.7465771688067 529.0376154147751L1574.7465771688067 529.0376154147751Q1577.8853997591082 527.5064824438964 1579.5951649099225 525.1587452218824L1579.5951649099225 525.1587452218824L1579.5951649099225 500.5840610392793Q1579.5951649099225 492.2393863479904 1574.8231338173505 488.33499727224967Q1570.0766216076267 484.430608196509 1557.3426990664857 484.430608196509L1557.3426990664857 484.430608196509Q1556.3474626354146 484.430608196509 1556.3474626354146 482.7718808113904Q1556.3474626354146 481.1131534262718 1557.3426990664857 481.1131534262718L1557.3426990664857 481.1131534262718ZM1679.246402431278 521.9433659830372Q1679.246402431278 524.2655843222033 1681.4665452390523 525.669122878842Q1683.6611691639782 527.0471425526329 1686.5192840429518 527.0471425526329Q1689.4029178047736 527.0471425526329 1691.316834018372 525.5670473474502Q1693.2562691148182 524.0869521422674 1693.9707978345618 524.0869521422674Q1694.685326554305 524.0869521422674 1694.685326554305 526.0263872387137Q1694.685326554305 527.940303452312 1692.8990047549464 529.292804243255L1692.8990047549464 529.292804243255Q1679.425034611214 539.1686119054225 1674.6785224014902 539.1686119054225L1674.6785224014902 539.1686119054225Q1668.936773760695 539.1686119054225 1665.3641301619778 527.2257747325687L1665.3641301619778 527.2257747325687Q1665.0834224506502 526.3326138328895 1664.9047902707143 526.4346893642813L1664.9047902707143 526.4346893642813Q1653.778557348996 534.7793640555703 1650.9204424700224 536.4636103235368L1650.9204424700224 536.4636103235368Q1643.5454853269562 540.6997448763012 1636.1450093010426 537.8161111144798Q1628.744533275129 534.9579962355061 1625.4270785048916 528.3230866950317L1625.4270785048916 528.3230866950317Q1623.8193888854694 524.9035563934026 1623.8193888854694 521.0502050833579L1623.8193888854694 521.0502050833579Q1623.8193888854694 513.4200591118124 1629.4590619948722 508.92873573056823Q1635.1242539871237 504.43741234932406 1650.9969991185662 500.32887221079955L1650.9969991185662 500.32887221079955Q1656.3814833994893 498.87429588846476 1660.5920990694058 496.65415308069066Q1664.8027147393223 494.40849139006855 1665.0323846849542 493.77051931886905Q1665.2620546305861 493.1325472476696 1665.2620546305861 492.59665070786207L1665.2620546305861 492.59665070786207L1665.2620546305861 475.37140478547667Q1665.2620546305861 465.2404082948293 1657.3767198305604 461.1063492734568L1657.3767198305604 461.1063492734568Q1654.773793780067 459.7793673653619 1651.124593532806 459.7793673653619Q1647.500912168393 459.7793673653619 1643.775155272588 462.6374822443355Q1640.0493983767833 465.52111600615706 1640.0493983767833 470.80352475568856L1640.0493983767833 470.80352475568856L1640.5087382680472 474.2996117058616Q1639.9728417282395 475.37140478547667 1634.0524609075082 477.89777418742653Q1628.1320800867775 480.39862470652844 1627.2134003042502 480.5772568864643L1627.2134003042502 480.5772568864643Q1625.7843428647634 480.5772568864643 1625.7843428647634 477.1322077019872Q1625.7843428647634 473.6871585175101 1627.85137237545 469.45102396474573Q1629.918401886136 465.2404082948293 1633.695196547637 461.74432134465627L1633.695196547637 461.74432134465627Q1642.4736922473412 453.57827883330316 1653.778557348996 453.57827883330316Q1665.0834224506502 453.57827883330316 1672.177671882388 459.80488624820987Q1679.246402431278 466.0570125459646 1679.246402431278 474.6568760657333L1679.246402431278 474.6568760657333L1679.246402431278 521.9433659830372ZM1637.9058122175534 519.3404399325434Q1637.9058122175534 523.6531311338517 1641.2232669877903 526.842991489849Q1644.5407217580278 530.0073329629984 1648.8023751936398 530.0073329629984Q1653.0640286292523 530.0073329629984 1659.163041629919 526.3836515985854Q1665.2620546305861 522.7599702341724 1665.2620546305861 518.8811000412798L1665.2620546305861 518.8811000412798L1665.2620546305861 500.68613657067124Q1665.2620546305861 499.6909001396001 1664.8027147393223 499.6909001396001Q1664.3688937309066 499.6909001396001 1664.1902615509707 499.79297567099195L1664.1902615509707 499.79297567099195L1643.3668531470203 509.4646322703758Q1640.1514739081754 511.8123694923898 1639.0286430628644 513.4200591118124Q1637.9058122175534 515.0277487312351 1637.9058122175534 519.3404399325434ZM1821.4631365430614 508.4949147221526L1821.4631365430614 508.4949147221526L1821.2845043631255 489.5599036489527Q1821.2845043631255 477.9743308359705 1819.2940315009832 473.30437527479046Q1817.3290775216888 468.6599385964584 1814.2668115799315 466.2611636087484Q1811.230064521022 463.8879075038864 1806.0752501857305 463.8879075038864Q1800.920435850439 463.8879075038864 1784.2310864678607 471.9773933666956L1784.2310864678607 471.9773933666956Q1781.9854247772387 473.30437527479046 1781.883349245847 474.47824388579744L1781.883349245847 474.47824388579744L1781.883349245847 522.7599702341724Q1781.883349245847 531.8191736452048 1791.5805247280787 533.1461555532996L1791.5805247280787 533.1461555532996Q1795.7911403979952 533.7841276244991 1795.7911403979952 535.1621472982899Q1795.7911403979952 536.5656858549288 1794.8979794983156 536.7443180348646L1794.8979794983156 536.7443180348646L1754.8843711926856 536.7443180348646Q1753.9912102930066 536.5656858549288 1753.9912102930066 535.4938927753137L1753.9912102930066 535.4938927753137Q1753.9912102930066 533.7841276244991 1758.201825962923 533.1461555532996L1758.201825962923 533.1461555532996Q1767.8990014451547 531.8191736452048 1767.8990014451547 522.7599702341724L1767.8990014451547 522.7599702341724L1767.8990014451547 478.07640636736244Q1767.8990014451547 463.9899830352783 1750.4951233428337 463.9899830352783L1750.4951233428337 463.9899830352783Q1744.115402630839 463.9899830352783 1732.8105375291848 471.51805347543194L1732.8105375291848 471.51805347543194Q1729.9524226502112 473.40645080618236 1728.5999218592683 475.014140425605L1728.5999218592683 475.014140425605L1728.5999218592683 522.7599702341724Q1728.5999218592683 531.8191736452048 1738.2970973415 533.1461555532996L1738.2970973415 533.1461555532996Q1742.5077130114164 533.7841276244991 1742.5077130114164 535.1621472982899Q1742.5077130114164 536.5656858549288 1741.6145521117369 536.7443180348646L1741.6145521117369 536.7443180348646L1701.600943806107 536.7443180348646Q1700.7077829064278 536.5656858549288 1700.7077829064278 535.4938927753137L1700.7077829064278 535.4938927753137Q1700.7077829064278 533.7841276244991 1704.9183985763443 533.1461555532996L1704.9183985763443 533.1461555532996Q1714.615574058576 531.8191736452048 1714.615574058576 522.9386024141083L1714.615574058576 522.9386024141083L1714.615574058576 471.2628646469522Q1714.615574058576 467.48606998545137 1710.4815150372037 466.0570125459646L1710.4815150372037 466.0570125459646Q1708.6951932378452 465.41904047476515 1706.628163727159 465.0107383491975Q1704.5611342164725 464.6024362236298 1703.3362278397694 464.2451718637581Q1702.1368403459146 463.8879075038864 1701.8306137517388 463.5816809097107Q1701.4988682747153 463.27545431553494 1701.4988682747153 462.22918011876783Q1701.4988682747153 461.20842480484873 1702.8513690656578 460.4938960851053L1702.8513690656578 460.4938960851053L1725.7418069802948 449.72492752325843Q1726.8136000599097 449.1890309834509 1727.0687888883895 449.1890309834509L1727.0687888883895 449.1890309834509Q1728.5999218592683 449.1890309834509 1728.5999218592683 451.3326171426811L1728.5999218592683 451.3326171426811L1728.5999218592683 466.23564472590044Q1728.70199739066 466.771541265708 1729.2634128133154 466.771541265708Q1729.8503471188192 466.771541265708 1732.223603223681 465.52111600615706Q1734.6223782113912 464.2451718637581 1738.4757295214358 461.97399129028804Q1742.3290808314805 459.67729183397 1748.657763777779 456.64054477506056Q1754.9864467240777 453.57827883330316 1762.0551772729677 453.57827883330316L1762.0551772729677 453.57827883330316Q1773.462117906014 453.57827883330316 1778.3872622956742 463.3520109640789L1778.3872622956742 463.3520109640789Q1780.2756596264244 467.3074378055155 1781.8067925973032 466.720503500012Q1783.3379255681816 466.13356919450854 1786.553304807027 464.5258795750859L1786.553304807027 464.5258795750859Q1794.1834507785725 460.7490849135851 1801.992228930054 457.17644131486816Q1809.8010070815353 453.57827883330316 1814.9047836511309 453.57827883330316L1814.9047836511309 453.57827883330316Q1835.6261165236897 453.57827883330316 1835.6261165236897 491.34622544831115L1835.6261165236897 491.34622544831115L1834.8350311554022 517.5541181331849L1834.8350311554022 522.7599702341724Q1834.8350311554022 529.7521441345185 1841.8272050557484 531.8957302937488L1841.8272050557484 531.8957302937488Q1844.7873954661136 532.8909667248199 1847.5179159308473 533.2992688503875Q1850.248436395581 533.6820520931072 1851.1160784124122 534.064835335827Q1851.9582015463957 534.4220996956985 1851.9582015463957 535.4938927753137Q1851.9582015463957 536.5656858549288 1851.0650406467162 536.7443180348646L1851.0650406467162 536.7443180348646L1807.810534219393 536.7443180348646Q1806.9173733197135 536.5656858549288 1806.9173733197135 535.4938927753137L1806.9173733197135 535.4938927753137Q1806.9173733197135 533.7841276244991 1811.12798898963 533.1461555532996L1811.12798898963 533.1461555532996Q1820.7486078233178 531.8191736452048 1820.7486078233178 522.0199226315812L1820.7486078233178 522.0199226315812Q1821.4631365430614 517.5541181331849 1821.4631365430614 508.4949147221526ZM1925.0698009058538 489.4578281175607L1873.0367987788254 489.4578281175607Q1871.505665807947 489.4578281175607 1871.505665807947 496.01618100949116L1871.505665807947 496.01618100949116Q1871.505665807947 509.92397216163937 1879.7737838506919 519.3404399325434Q1888.016383010589 528.7569077034474 1900.2654467776188 528.7569077034474Q1912.5145105446481 528.7569077034474 1923.8193756463024 518.1665713215364L1923.8193756463024 518.1665713215364Q1923.9980078262383 517.9879391416005 1924.2787155375663 517.9879391416005L1924.2787155375663 517.9879391416005L1924.712536545982 517.9879391416005Q1925.2484330857892 517.9879391416005 1925.7588107427491 518.8555811584317Q1926.2436695168603 519.6977042924151 1926.7030094081242 519.9784120037428L1926.7030094081242 519.9784120037428Q1916.291305206149 532.6102590134922 1902.204881874065 537.458846754608L1902.204881874065 537.458846754608Q1897.3562941329487 539.1686119054225 1891.257281132282 539.1686119054225Q1885.1582681316154 539.1686119054225 1878.8806229510128 535.8001193694894Q1872.6029777704102 532.4316268335563 1868.1116543891658 526.9705859040889L1868.1116543891658 526.9705859040889Q1858.5931110868696 515.5636452710426 1858.5931110868696 498.568069294289Q1858.5931110868696 481.5724933175354 1868.9537775231493 467.5626266339953Q1879.3144439594284 453.57827883330316 1897.432850781493 453.57827883330316L1897.432850781493 453.57827883330316Q1910.447481033962 453.57827883330316 1918.715599076707 465.1893705291333Q1926.958198236604 476.82598110781146 1926.958198236604 485.604476807516L1926.958198236604 485.604476807516Q1926.958198236604 489.4578281175607 1925.0698009058538 489.4578281175607L1925.0698009058538 489.4578281175607ZM1874.032035209897 479.78617151817696L1874.032035209897 480.85796459779203Q1874.032035209897 482.56772974860655 1875.6397248293192 482.56772974860655L1875.6397248293192 482.56772974860655L1909.4777634857387 482.56772974860655Q1911.7999818249045 482.56772974860655 1911.7999818249045 479.78617151817696L1911.7999818249045 479.78617151817696Q1911.7999818249045 473.30437527479046 1906.0071954184136 466.5418713200762Q1900.2144090119227 459.7793673653619 1893.3243106429686 459.7793673653619L1893.3243106429686 459.7793673653619Q1886.5873255711022 459.7793673653619 1881.0752468759388 465.87838036602875Q1875.5631681807754 471.9773933666956 1874.032035209897 479.78617151817696L1874.032035209897 479.78617151817696Z " fill="#fbf8be" transform="matrix(0.454083536885049,0,0,0.454083536885049,0,89.22866304913384)"/></g></svg>